Coordinates
version=1
nRows=14
nColumns=63
inDegrees=yes

Units are S.I. units (second, meters, Newtons, ...)
If the header above contains a line with 'inDegrees', this indicates whether rotational values are in degrees (yes) or radians (no).

endheader
time	pelvis_tilt	pelvis_list	pelvis_rotation	pelvis_tx	pelvis_ty	pelvis_tz	hip_flexion_r	hip_adduction_r	hip_rotation_r	knee_angle_r	knee_angle_r_beta	ankle_angle_r	subtalar_angle_r	mtp_angle_r	hip_flexion_l	hip_adduction_l	hip_rotation_l	knee_angle_l	knee_angle_l_beta	ankle_angle_l	subtalar_angle_l	mtp_angle_l	L5_S1_Flex_Ext	L5_S1_Lat_Bending	L5_S1_axial_rotation	L4_L5_Flex_Ext	L4_L5_Lat_Bending	L4_L5_axial_rotation	L3_L4_Flex_Ext	L3_L4_Lat_Bending	L3_L4_axial_rotation	L2_L3_Flex_Ext	L2_L3_Lat_Bending	L2_L3_axial_rotation	L1_L2_Flex_Ext	L1_L2_Lat_Bending	L1_L2_axial_rotation	L1_T12_Flex_Ext	L1_T12_Lat_Bending	L1_T12_axial_rotation	Abs_r3	Abs_r2	Abs_r1	Abs_t1	Abs_t2	neck_flexion	neck_bending	neck_rotation	arm_flex_r	arm_add_r	arm_rot_r	elbow_flex_r	pro_sup_r	wrist_flex_r	wrist_dev_r	arm_flex_l	arm_add_l	arm_rot_l	elbow_flex_l	pro_sup_l	wrist_flex_l	wrist_dev_l
1.216667	4.054228	-5.426032	100.352898	0.205545	0.952639	0.380074	-6.096862	5.946261	-15.562759	2.050439	0.035787	15.044996	-5.258839	0.000000	-4.121747	-3.595092	-4.661972	1.898437	0.033134	28.052696	10.362304	0.000000	-0.041199	0.628518	-2.660713	-0.076510	0.835929	-2.827007	-0.067685	1.528179	-2.827007	-0.047086	1.528179	-2.328124	-0.038257	1.281674	-2.161829	-0.023541	0.973575	-1.995535	-0.294278	7.109923	-14.798086	0.000000	0.000000	10.466811	4.114620	9.453000	14.113078	-14.205126	70.206648	57.871779	33.566654	0.907904	15.231299	7.988555	-10.127834	51.583396	58.792737	61.378149	7.765740	13.717027
1.233333	4.044135	-5.497573	100.637987	0.204791	0.952679	0.380577	-5.919577	5.899873	-15.622513	2.143945	0.037419	15.272331	-5.374686	0.000000	-3.945821	-3.572553	-4.299827	2.007215	0.035033	27.999036	10.275749	0.000000	-0.051144	0.639351	-2.737218	-0.094979	0.850337	-2.908294	-0.084024	1.554519	-2.908294	-0.058452	1.554519	-2.395066	-0.047492	1.303765	-2.223990	-0.029224	0.990355	-2.052914	-0.365316	7.232469	-15.223586	0.000000	0.000000	10.252912	4.103950	9.553442	14.253545	-14.170218	70.084132	57.875846	34.516715	0.860450	15.625196	7.912791	-10.131144	51.464891	58.902551	60.934823	7.422264	13.741344
1.250000	4.021114	-5.568787	100.917473	0.204036	0.952690	0.381057	-5.744910	5.839088	-15.647945	2.256443	0.039382	15.484987	-5.606083	0.000000	-3.773805	-3.531469	-3.813592	2.117161	0.036951	27.935659	10.015702	0.000000	-0.059844	0.649028	-2.818221	-0.111137	0.863208	-2.994360	-0.098318	1.578048	-2.994360	-0.068396	1.578048	-2.465944	-0.055572	1.323499	-2.289805	-0.034195	1.005345	-2.113666	-0.427463	7.341940	-15.674102	0.000000	0.000000	10.072161	4.100136	9.665299	14.384157	-14.135038	69.955771	57.903631	35.009432	0.743812	16.145952	7.790139	-10.132316	51.246143	59.019360	60.593413	7.071533	13.743003
1.266667	3.988381	-5.610994	101.191374	0.203281	0.952718	0.381500	-5.611852	5.775833	-15.746703	2.363775	0.041256	15.693320	-5.780472	0.000000	-3.633303	-3.483771	-3.285280	2.232551	0.038965	27.876698	9.684160	0.000000	-0.070820	0.657694	-2.896246	-0.131521	0.874734	-3.077262	-0.116351	1.599118	-3.077262	-0.080941	1.599118	-2.534215	-0.065764	1.341171	-2.353200	-0.040467	1.018769	-2.172185	-0.505864	7.439971	-16.108053	0.000000	0.000000	9.906669	4.147187	9.744071	14.493822	-14.105844	69.779921	57.939802	35.256261	0.614070	16.675937	7.684135	-10.142439	51.054014	59.143006	60.255356	6.650306	13.737378
1.283333	3.946860	-5.631586	101.455266	0.202554	0.952751	0.381863	-5.513915	5.710180	-15.907102	2.468098	0.043076	15.910963	-5.882894	0.000000	-3.520928	-3.431031	-2.756515	2.348149	0.040983	27.825288	9.335521	0.000000	-0.081322	0.665016	-2.968856	-0.151022	0.884472	-3.154410	-0.133603	1.616920	-3.154410	-0.092943	1.616920	-2.597749	-0.075515	1.356101	-2.412196	-0.046467	1.030110	-2.226642	-0.580873	7.522796	-16.511887	0.000000	0.000000	9.746570	4.249028	9.795535	14.575423	-14.077367	69.559059	57.980149	35.249979	0.460691	17.177404	7.589519	-10.159492	50.889572	59.265412	59.952073	6.188877	13.716729
1.300000	3.910010	-5.631951	101.695382	0.201852	0.952781	0.382113	-5.449683	5.649696	-16.250273	2.569907	0.044853	16.173974	-5.717418	0.000000	-3.445269	-3.379188	-2.117699	2.445925	0.042689	27.761495	8.808702	0.000000	-0.089466	0.673046	-3.032257	-0.166147	0.895151	-3.221773	-0.146984	1.636444	-3.221773	-0.102251	1.636444	-2.653225	-0.083078	1.372475	-2.463709	-0.051121	1.042548	-2.274193	-0.639047	7.613630	-16.864506	0.000000	0.000000	9.567563	4.398802	9.841826	14.648783	-14.073464	69.357102	58.034685	35.036297	0.286042	17.544687	7.526763	-10.185849	50.830630	59.390570	59.573040	5.632686	13.657358
1.316667	3.868547	-5.605504	101.916218	0.201212	0.952823	0.382242	-5.434483	5.599611	-16.547016	2.649266	0.046238	16.391872	-5.630651	0.000000	-3.404391	-3.330225	-1.473625	2.551567	0.044533	27.706217	8.234078	0.000000	-0.096426	0.679429	-3.083883	-0.179072	0.903640	-3.276626	-0.158418	1.651963	-3.276626	-0.110205	1.651963	-2.698398	-0.089541	1.385491	-2.505655	-0.055098	1.052435	-2.312912	-0.688760	7.685832	-17.151633	0.000000	0.000000	9.378714	4.599852	9.814723	14.680888	-14.072240	69.101533	58.095373	34.580106	0.077559	17.821317	7.474520	-10.203421	50.769736	59.494131	59.425937	5.156350	13.599123
1.333333	3.832921	-5.543682	102.103292	0.200645	0.952897	0.382275	-5.467900	5.567072	-16.845588	2.719053	0.047456	16.583726	-5.531909	0.000000	-3.402285	-3.300512	-1.054857	2.678390	0.046747	27.695356	7.895131	0.000000	-0.104200	0.685657	-3.118741	-0.193509	0.911924	-3.313662	-0.171189	1.667108	-3.313662	-0.119090	1.667108	-2.728898	-0.096760	1.398193	-2.533977	-0.059540	1.062083	-2.339055	-0.744287	7.756294	-17.345500	0.000000	0.000000	9.187905	4.825436	9.697574	14.670818	-14.083341	68.774333	58.166847	34.055268	-0.156317	18.002984	7.478094	-10.216817	50.815573	59.572472	59.308533	4.657049	13.537958
1.350000	3.801292	-5.471610	102.254625	0.200161	0.952964	0.382199	-5.527808	5.547430	-17.056677	2.767370	0.048300	16.731340	-5.522698	0.000000	-3.418053	-3.281149	-0.736764	2.817221	0.049170	27.702103	7.637993	0.000000	-0.109273	0.690794	-3.138277	-0.202931	0.918757	-3.334419	-0.179525	1.679598	-3.334419	-0.124888	1.679598	-2.745992	-0.101471	1.408668	-2.549850	-0.062439	1.070041	-2.353708	-0.780526	7.814405	-17.454154	0.000000	0.000000	8.994906	5.072627	9.476837	14.614970	-14.102699	68.402354	58.249184	33.427674	-0.416179	18.095861	7.499550	-10.214208	50.883248	59.620254	59.321191	4.223922	13.487444
1.366667	3.780948	-5.366429	102.364750	0.199760	0.953072	0.382063	-5.628561	5.549148	-17.233011	2.800889	0.048885	16.847761	-5.525500	0.000000	-3.471441	-3.284770	-0.639585	2.970338	0.051842	27.736277	7.603267	0.000000	-0.117134	0.696212	-3.140751	-0.217530	0.925962	-3.337048	-0.192439	1.692770	-3.337048	-0.133872	1.692770	-2.748157	-0.108771	1.419715	-2.551860	-0.066930	1.078432	-2.355563	-0.836677	7.875689	-17.467916	0.000000	0.000000	8.810023	5.325534	9.149427	14.537639	-14.133135	68.010735	58.332767	32.803495	-0.690456	18.110422	7.580536	-10.192889	51.035329	59.623607	59.348251	3.794084	13.444912
1.383333	3.784608	-5.277829	102.417707	0.199460	0.953133	0.381871	-5.712376	5.568411	-17.361905	2.825174	0.049309	16.971325	-5.466019	0.000000	-3.506605	-3.313534	-0.807543	3.145163	0.054893	27.828439	7.840623	0.000000	-0.120451	0.702855	-3.122905	-0.223690	0.934797	-3.318087	-0.197889	1.708922	-3.318087	-0.137664	1.708922	-2.732542	-0.111851	1.433262	-2.537360	-0.068826	1.088723	-2.342179	-0.860371	7.950839	-17.368662	0.000000	0.000000	8.658051	5.571242	8.706345	14.431305	-14.197236	67.644513	58.443964	32.271405	-0.985253	17.987145	7.712651	-10.149071	51.282679	59.591152	59.311054	3.378761	13.440400
1.400000	3.792132	-5.182427	102.460787	0.199219	0.953190	0.381654	-5.812713	5.604745	-17.256963	2.813055	0.049097	17.000444	-5.719149	0.000000	-3.552122	-3.348388	-0.934242	3.316186	0.057878	27.904722	8.000589	0.000000	-0.124296	0.708827	-3.100717	-0.230831	0.942740	-3.294512	-0.204206	1.723442	-3.294512	-0.142058	1.723442	-2.713127	-0.115422	1.445440	-2.519332	-0.071023	1.097973	-2.325538	-0.887836	8.018392	-17.245257	0.000000	0.000000	8.537317	5.810195	8.220133	14.323890	-14.252784	67.310214	58.544964	31.891686	-1.258596	17.889938	7.864085	-10.091472	51.523662	59.528830	59.273872	3.066533	13.500300
1.416667	3.806280	-5.090262	102.482429	0.199048	0.953244	0.381451	-5.906595	5.647911	-17.112634	2.788913	0.048676	17.010389	-5.964057	0.000000	-3.588892	-3.394576	-1.229940	3.500521	0.061096	28.001731	8.345776	0.000000	-0.128124	0.714801	-3.071883	-0.237939	0.950686	-3.263876	-0.210495	1.737968	-3.263876	-0.146433	1.737968	-2.687898	-0.118976	1.457623	-2.495905	-0.073210	1.107227	-2.303912	-0.915178	8.085977	-17.084892	0.000000	0.000000	8.453143	6.026589	7.710568	14.223761	-14.303292	67.025260	58.629101	31.694161	-1.487347	17.800304	8.051484	-10.029124	51.824074	59.436002	59.180036	2.797257	13.553178
1.433333	3.822709	-5.008659	102.494540	0.198923	0.953292	0.381294	-5.983607	5.688329	-17.010321	2.761062	0.048190	17.012477	-6.099282	0.000000	-3.605494	-3.444488	-1.663054	3.699965	0.064577	28.118364	8.851648	0.000000	-0.131574	0.720540	-3.042128	-0.244346	0.958318	-3.232261	-0.216163	1.751920	-3.232261	-0.150376	1.751920	-2.661862	-0.122180	1.469325	-2.471729	-0.075181	1.116116	-2.281596	-0.939821	8.150889	-16.919405	0.000000	0.000000	8.405000	6.211473	7.212249	14.140293	-14.342171	66.798720	58.693073	31.680146	-1.653207	17.740159	8.254566	-9.972888	52.163689	59.330873	59.029443	2.566067	13.591515
